<svg xmlns="http://www.w3.org/2000/svg" 
     viewBox="0 0 300 199" 
     width="300" 
     height="199" 
     preserveAspectRatio="xMidYMid meet">
  <metadata>
    Created by potrace 1.10, written by Peter Selinger 2001-2011
  </metadata>
  <g transform="translate(0,199) scale(0.1,-0.1)" fill="#000" stroke="none">
    <path d="M1355 1957 c-376 -308 -549 -456 -582 -495 -207 -245 -249 -551 -114 -836 
      75 -159 183 -270 336 -346 118 -58 210 -81 350 -87 138 -6 226 8 352 57 260 100 
      440 342 459 618 5 61 3 95 -6 111 -21 39 -33 8 -36 -91 -8 -320 -254 -590 -590 
      -649 -85 -15 -278 -6 -359 16 -151 41 -302 141 -390 257 -207 273 -203 643 10 
      901 50 60 233 218 522 452 64 51 112 98 113 108 0 26 -20 21 -65 -16z" />
    <path d="M1463 1860 c-36 -32 -40 -40 -20 -40 16 1 67 46 67 60 0 17 -13 11 -47 -20z" />
    <path d="M1314 1740 c-96 -78 -117 -100 -95 -100 17 0 211 162 205 171 -3 5 -6 9 -8 9 -2 0 -47 -36 -102 -80z" />
    <path d="M1441 1704 c-72 -58 -130 -111 -128 -118 9 -27 40 -11 152 80 152 121 142 
      111 124 130 -14 14 -29 5 -148 -92z" />
    <path d="M1130 1590 c-24 -22 -41 -42 -37 -46 9 -9 99 65 92 77 -8 12 -3 14 -55 -31z" />
  </g>
</svg>
